<?xml version="1.0" encoding="utf-8"?>
<!-- Generator: Adobe Illustrator 19.0.0, SVG Export Plug-In . SVG Version: 6.00 Build 0)  -->
<svg version="1.1" id="Layer_1" xmlns="http://www.w3.org/2000/svg" xmlns:xlink="http://www.w3.org/1999/xlink" x="0px" y="0px"
	 viewBox="0 0 96 96" xml:space="preserve" fill="red">
<g id="XMLID_1_">
	<path id="XMLID_5_" d="M48,20.5c-15.2,0-27.5,12.3-27.5,27.5S32.8,75.5,48,75.5S75.5,63.2,75.5,48S63.2,20.5,48,20.5z M48,70.3
		c-12.3,0-22.3-10-22.3-22.3s10-22.3,22.3-22.3s22.3,10,22.3,22.3S60.3,70.3,48,70.3z"/>
	<polygon id="XMLID_6_" points="56.6,34.3 48,42.8 39.4,34.3 34.3,39.4 42.8,48 34.3,56.6 39.4,61.8 48,53.2 56.6,61.8 61.8,56.6 
		53.2,48 61.8,39.4 	"/>
</g>
</svg>
